<svg version="1.2" xmlns="http://www.w3.org/2000/svg" viewBox="0 0 100 100" width="100" height="100"><style>.a{fill:#ff0;stroke:#c3c300;stroke-miterlimit:100}</style><path fill-rule="evenodd" class="a" d="m70.5 0.4c1 0.4 1.7 1.3 1.9 2.3l3.9 21 21 3.9c1 0.2 1.9 0.9 2.3 1.8 0.4 1 0.3 2.1-0.3 3l-12.1 17.6 12.1 17.6c0.6 0.9 0.7 2 0.3 2.9-0.4 1-1.3 1.7-2.3 1.9l-21 3.9-3.9 21c-0.2 1-0.9 1.9-1.9 2.3-0.9 0.4-2 0.3-2.9-0.3l-17.6-12.1-17.6 12.1c-0.9 0.6-2 0.7-2.9 0.3-1-0.4-1.7-1.3-1.9-2.3l-3.9-21-21-3.9c-1-0.2-1.9-0.9-2.3-1.9-0.4-0.9-0.3-2 0.3-2.9l12.1-17.6-12.1-17.6c-0.6-0.9-0.7-2-0.3-2.9 0.4-1 1.3-1.7 2.3-1.9l21-3.9 3.9-21c0.2-1 0.9-1.9 1.9-2.3 0.9-0.4 2-0.3 2.9 0.3l17.6 12.1 17.6-12.1c0.9-0.6 2-0.7 2.9-0.3zm4.4 49.6c0-6.6-2.6-12.9-7.3-17.6-4.7-4.7-11-7.3-17.6-7.3-6.6 0-12.9 2.6-17.6 7.3-4.7 4.7-7.3 11-7.3 17.6 0 6.6 2.6 12.9 7.3 17.6 4.7 4.7 11 7.3 17.6 7.3 6.6 0 12.9-2.6 17.6-7.3 4.7-4.7 7.3-11 7.3-17.6zm-43.6 0c0-5 2-9.7 5.5-13.2 3.5-3.5 8.2-5.5 13.2-5.5 5 0 9.7 2 13.2 5.5 3.5 3.5 5.5 8.2 5.5 13.2 0 5-2 9.7-5.5 13.2-3.5 3.5-8.2 5.5-13.2 5.5-5 0-9.7-2-13.2-5.5-3.5-3.5-5.5-8.2-5.5-13.2z"/></svg>