<svg version="1.2" xmlns="http://www.w3.org/2000/svg" viewBox="0 0 100 100" width="100" height="100"><style>.a{fill:#fff}.b{fill:#808080}</style><path class="a" d="m50 100c-27.7 0-50-22.4-50-50 0-27.7 22.3-50 50-50 27.6 0 50 22.3 50 50 0 27.6-22.4 50-50 50z"/><path fill-rule="evenodd" class="b" d="m0 50c0-13.3 5.3-26 14.6-35.4 9.4-9.3 22.1-14.6 35.4-14.6 13.3 0 26 5.3 35.4 14.6 9.3 9.4 14.6 22.1 14.6 35.4 0 13.3-5.3 26-14.6 35.4-9.4 9.3-22.1 14.6-35.4 14.6-13.3 0-26-5.3-35.4-14.6-9.3-9.4-14.6-22.1-14.6-35.4zm77.9 25c-4.3-7.5-12.4-12.5-21.7-12.5h-12.5c-9.2 0-17.3 5-21.6 12.5 6.8 7.7 16.8 12.5 27.9 12.5 11.1 0 21.1-4.8 27.9-12.5zm-27.9-21.9c3.7 0 7.3-1.5 9.9-4.1 2.7-2.6 4.2-6.2 4.2-9.9 0-3.8-1.5-7.3-4.2-10-2.6-2.6-6.2-4.1-9.9-4.1-3.7 0-7.3 1.5-9.9 4.1-2.7 2.7-4.2 6.2-4.2 10 0 3.7 1.5 7.3 4.2 9.9 2.6 2.6 6.2 4.1 9.9 4.1z"/></svg>